<mxfile host="app.diagrams.net" agent="Mozilla/5.0 (Windows NT 10.0; Win64; x64) AppleWebKit/537.36 (KHTML, like Gecko) Chrome/139.0.0.0 Safari/537.36 Edg/139.0.0.0" version="28.1.0">
  <diagram name="Page-1" id="CL4NqByKAbxEbBrcqaoR">
    <mxGraphModel dx="1141" dy="646" grid="1" gridSize="10" guides="1" tooltips="1" connect="1" arrows="1" fold="1" page="1" pageScale="1" pageWidth="827" pageHeight="1169" math="0" shadow="0">
      <root>
        <object label="" Etudiant="" id="0">
          <mxCell />
        </object>
        <mxCell id="1" parent="0" />
        <mxCell id="xggS5VsJ9kBAOA8I4eNx-1" value="Etudiant" style="shape=umlActor;verticalLabelPosition=bottom;verticalAlign=top;html=1;" parent="1" vertex="1">
          <mxGeometry x="90" y="272" width="30" height="60" as="geometry" />
        </mxCell>
        <mxCell id="xggS5VsJ9kBAOA8I4eNx-2" value="Système" style="shape=umlActor;verticalLabelPosition=bottom;verticalAlign=top;html=1;" parent="1" vertex="1">
          <mxGeometry x="90" y="413" width="30" height="60" as="geometry" />
        </mxCell>
        <mxCell id="xggS5VsJ9kBAOA8I4eNx-3" value="Formateur" style="shape=umlActor;verticalLabelPosition=bottom;verticalAlign=top;html=1;" parent="1" vertex="1">
          <mxGeometry x="94" y="525" width="30" height="60" as="geometry" />
        </mxCell>
        <mxCell id="xggS5VsJ9kBAOA8I4eNx-6" value="Soumettre un projet" style="ellipse;whiteSpace=wrap;html=1;" parent="1" vertex="1">
          <mxGeometry x="174" y="285" width="140" height="70" as="geometry" />
        </mxCell>
        <mxCell id="xggS5VsJ9kBAOA8I4eNx-7" value="Évaluer automatiquement" style="ellipse;whiteSpace=wrap;html=1;" parent="1" vertex="1">
          <mxGeometry x="176" y="389" width="140" height="70" as="geometry" />
        </mxCell>
        <mxCell id="xggS5VsJ9kBAOA8I4eNx-8" value="Valider une compétence" style="ellipse;whiteSpace=wrap;html=1;" parent="1" vertex="1">
          <mxGeometry x="186" y="490" width="140" height="70" as="geometry" />
        </mxCell>
        <mxCell id="xggS5VsJ9kBAOA8I4eNx-9" value="Consulter les résultats" style="ellipse;whiteSpace=wrap;html=1;" parent="1" vertex="1">
          <mxGeometry x="326" y="312" width="140" height="70" as="geometry" />
        </mxCell>
        <mxCell id="xggS5VsJ9kBAOA8I4eNx-10" value="Générer un rapport de progression" style="ellipse;whiteSpace=wrap;html=1;" parent="1" vertex="1">
          <mxGeometry x="322" y="442" width="140" height="70" as="geometry" />
        </mxCell>
        <mxCell id="xggS5VsJ9kBAOA8I4eNx-13" style="edgeStyle=orthogonalEdgeStyle;rounded=0;orthogonalLoop=1;jettySize=auto;html=1;exitX=0.5;exitY=0.5;exitDx=0;exitDy=0;exitPerimeter=0;entryX=0.034;entryY=0.568;entryDx=0;entryDy=0;entryPerimeter=0;" parent="1" source="xggS5VsJ9kBAOA8I4eNx-2" target="xggS5VsJ9kBAOA8I4eNx-7" edge="1">
          <mxGeometry relative="1" as="geometry" />
        </mxCell>
        <mxCell id="xggS5VsJ9kBAOA8I4eNx-14" style="edgeStyle=orthogonalEdgeStyle;rounded=0;orthogonalLoop=1;jettySize=auto;html=1;exitX=0.5;exitY=0.5;exitDx=0;exitDy=0;exitPerimeter=0;entryX=0;entryY=0.5;entryDx=0;entryDy=0;" parent="1" source="xggS5VsJ9kBAOA8I4eNx-1" target="xggS5VsJ9kBAOA8I4eNx-6" edge="1">
          <mxGeometry relative="1" as="geometry" />
        </mxCell>
        <mxCell id="xggS5VsJ9kBAOA8I4eNx-15" style="edgeStyle=orthogonalEdgeStyle;rounded=0;orthogonalLoop=1;jettySize=auto;html=1;exitX=0.5;exitY=0.5;exitDx=0;exitDy=0;exitPerimeter=0;" parent="1" source="xggS5VsJ9kBAOA8I4eNx-3" target="xggS5VsJ9kBAOA8I4eNx-8" edge="1">
          <mxGeometry relative="1" as="geometry" />
        </mxCell>
        <mxCell id="caCbFTeOiD1S4zZy4s62-1" style="edgeStyle=orthogonalEdgeStyle;rounded=0;orthogonalLoop=1;jettySize=auto;html=1;exitX=0.5;exitY=0.5;exitDx=0;exitDy=0;exitPerimeter=0;" edge="1" parent="1" target="xggS5VsJ9kBAOA8I4eNx-10">
          <mxGeometry relative="1" as="geometry">
            <mxPoint x="104.48" y="453" as="sourcePoint" />
            <mxPoint x="499.4799999999998" y="393" as="targetPoint" />
            <Array as="points">
              <mxPoint x="150" y="453" />
              <mxPoint x="150" y="477" />
            </Array>
          </mxGeometry>
        </mxCell>
        <mxCell id="caCbFTeOiD1S4zZy4s62-2" style="edgeStyle=orthogonalEdgeStyle;rounded=0;orthogonalLoop=1;jettySize=auto;html=1;exitX=0.75;exitY=0.1;exitDx=0;exitDy=0;exitPerimeter=0;entryX=0.592;entryY=0.007;entryDx=0;entryDy=0;entryPerimeter=0;" edge="1" parent="1" source="xggS5VsJ9kBAOA8I4eNx-1" target="xggS5VsJ9kBAOA8I4eNx-9">
          <mxGeometry relative="1" as="geometry">
            <mxPoint x="120" y="282.0000000000001" as="sourcePoint" />
            <mxPoint x="410" y="302.0000000000001" as="targetPoint" />
          </mxGeometry>
        </mxCell>
        <mxCell id="caCbFTeOiD1S4zZy4s62-3" value="&amp;lt;&amp;lt;include&amp;gt;&amp;gt;" style="endArrow=open;endSize=16;endFill=0;html=1;rounded=0;exitX=0.439;exitY=0.981;exitDx=0;exitDy=0;exitPerimeter=0;entryX=0.42;entryY=0.05;entryDx=0;entryDy=0;entryPerimeter=0;dashed=1;" edge="1" parent="1" source="xggS5VsJ9kBAOA8I4eNx-6" target="xggS5VsJ9kBAOA8I4eNx-7">
          <mxGeometry width="160" relative="1" as="geometry">
            <mxPoint x="190" y="412" as="sourcePoint" />
            <mxPoint x="350" y="412" as="targetPoint" />
          </mxGeometry>
        </mxCell>
        <mxCell id="caCbFTeOiD1S4zZy4s62-4" value="&amp;lt;&amp;lt;include&amp;gt;&amp;gt;" style="endArrow=open;endSize=16;endFill=0;html=1;rounded=0;entryX=0.618;entryY=1.013;entryDx=0;entryDy=0;entryPerimeter=0;exitX=1;exitY=0.5;exitDx=0;exitDy=0;dashed=1;" edge="1" parent="1" source="xggS5VsJ9kBAOA8I4eNx-7" target="xggS5VsJ9kBAOA8I4eNx-9">
          <mxGeometry width="160" relative="1" as="geometry">
            <mxPoint x="190" y="412" as="sourcePoint" />
            <mxPoint x="350" y="412" as="targetPoint" />
          </mxGeometry>
        </mxCell>
        <mxCell id="caCbFTeOiD1S4zZy4s62-5" value="&amp;lt;&amp;lt;extend&amp;gt;&amp;gt;" style="endArrow=open;endSize=16;endFill=0;html=1;rounded=0;exitX=1;exitY=0.5;exitDx=0;exitDy=0;entryX=1;entryY=0.5;entryDx=0;entryDy=0;dashed=1;" edge="1" parent="1" source="xggS5VsJ9kBAOA8I4eNx-8" target="xggS5VsJ9kBAOA8I4eNx-9">
          <mxGeometry width="160" relative="1" as="geometry">
            <mxPoint x="210" y="582" as="sourcePoint" />
            <mxPoint x="370" y="582" as="targetPoint" />
            <Array as="points">
              <mxPoint x="466" y="525" />
            </Array>
          </mxGeometry>
        </mxCell>
      </root>
    </mxGraphModel>
  </diagram>
</mxfile>
